<svg width="185" height="46" viewBox="0 0 185 46" fill="none" xmlns="http://www.w3.org/2000/svg">
<path d="M13.7129 45.9668C11.4473 45.9668 9.50391 45.6934 7.88281 45.1465C6.26172 44.6191 4.91406 43.7793 3.83984 42.627C2.74609 41.4551 1.92578 39.9316 1.37891 38.0566C0.851562 36.1621 0.587891 33.877 0.587891 31.2012C0.587891 28.1738 0.939453 25.0195 1.64258 21.7383C2.46289 17.9297 3.63477 14.5215 5.1582 11.5137C6.93555 8.01758 9.09375 5.29297 11.6328 3.33984C14.5234 1.11328 17.8242 0 21.5352 0C24.5234 0 26.8965 0.625 28.6543 1.875C30.5879 3.24219 31.5547 5.29297 31.5547 8.02734C31.5547 9.74609 31.2422 11.0645 30.6172 11.9824C29.875 13.0371 28.7812 13.5645 27.3359 13.5645C26.7305 13.5645 26.1348 13.457 25.5488 13.2422C24.9824 13.0273 24.4453 12.6172 23.9375 12.0117C24.2891 11.8359 24.6309 11.5625 24.9629 11.1914C25.2949 10.8008 25.5879 10.3516 25.8418 9.84375C26.4082 8.71094 26.6914 7.58789 26.6914 6.47461C26.6914 5.40039 26.418 4.55078 25.8711 3.92578C25.2266 3.18359 24.2793 2.8125 23.0293 2.8125C21.9551 2.8125 20.8906 3.21289 19.8359 4.01367C18.8008 4.79492 17.8047 5.9082 16.8477 7.35352C15.9297 8.74023 15.0801 10.3613 14.2988 12.2168C13.5176 14.0723 12.8535 16.0449 12.3066 18.1348C11.7598 20.2441 11.3301 22.3926 11.0176 24.5801C10.7051 26.7676 10.5488 28.8574 10.5488 30.8496C10.5488 32.334 10.6562 33.6328 10.8711 34.7461C11.1055 35.8594 11.4766 36.8066 11.9844 37.5879C13.0977 39.3262 15.0215 40.1953 17.7559 40.1953C20.0996 40.1953 22.2773 39.6777 24.2891 38.6426C26.3008 37.5879 28.0195 36.1035 29.4453 34.1895L30.8223 34.8047C30.0605 36.7188 29.0059 38.3984 27.6582 39.8438C26.3301 41.2695 24.8262 42.4512 23.1465 43.3887C21.6035 44.248 20.0117 44.8926 18.3711 45.3223C16.7305 45.752 15.1777 45.9668 13.7129 45.9668ZM36.4766 45.3516C34.1914 45.3516 32.3457 44.6387 30.9395 43.2129C29.2988 41.5332 28.4785 39.0332 28.4785 35.7129C28.4785 34.3066 28.625 32.8223 28.918 31.2598C29.1914 29.6973 29.6016 28.1543 30.1484 26.6309C31.3984 23.1934 33.1074 20.4199 35.2754 18.3105C37.7754 15.9082 40.6562 14.707 43.918 14.707C45.5391 14.707 46.75 14.9902 47.5508 15.5566C48.3711 16.1035 48.7812 16.8359 48.7812 17.7539V18.1934L49.4258 15H58.0684L53.7617 35.3906C53.5859 35.9766 53.498 36.6211 53.498 37.3242C53.498 39.043 54.3184 39.9023 55.959 39.9023C57.0527 39.9023 58.0488 39.3457 58.9473 38.2324C59.709 37.2949 60.334 35.9668 60.8223 34.248H63.3418C62.2676 37.2949 60.9688 39.707 59.4453 41.4844C58.1562 42.9492 56.7012 44.0039 55.0801 44.6484C53.8887 45.1172 52.6289 45.3516 51.3008 45.3516C49.6016 45.3516 48.2441 44.8926 47.2285 43.9746C46.2324 43.0371 45.627 41.6602 45.4121 39.8438C44.2793 41.4453 43.0879 42.6953 41.8379 43.5938C40.2363 44.7656 38.4492 45.3516 36.4766 45.3516ZM40.373 39.5508C40.8223 39.5508 41.291 39.4336 41.7793 39.1992C42.2871 38.9648 42.7754 38.6328 43.2441 38.2031C44.2988 37.1875 45.002 35.8691 45.3535 34.248L48.2246 20.7129C48.2246 20.5176 48.1758 20.293 48.0781 20.0391C48 19.7656 47.8828 19.5117 47.7266 19.2773C47.2578 18.7109 46.6035 18.4277 45.7637 18.4277C44.9629 18.4277 44.1816 18.6914 43.4199 19.2188C42.6777 19.7461 41.9746 20.4785 41.3105 21.416C40.1387 23.1152 39.1719 25.332 38.4102 28.0664C38.0586 29.2773 37.7949 30.4785 37.6191 31.6699C37.4434 32.8418 37.3555 33.9062 37.3555 34.8633C37.3555 36.8555 37.7266 38.2031 38.4688 38.9062C38.7227 39.1797 39.0059 39.3555 39.3184 39.4336C39.6309 39.5117 39.9824 39.5508 40.373 39.5508ZM82.502 45.3516C80.0215 45.3516 78.1855 44.6484 76.9941 43.2422C75.959 42.0312 75.4414 40.4785 75.4414 38.584C75.4414 37.6855 75.5488 36.6406 75.7637 35.4492C75.998 34.2578 76.3398 32.7246 76.7891 30.8496C77.2383 28.9355 77.5703 27.4121 77.7852 26.2793C78.0195 25.127 78.1367 24.1309 78.1367 23.291C78.1367 21.2402 77.4141 20.2148 75.9688 20.2148C74.9531 20.2148 74.0156 20.752 73.1562 21.8262C72.4336 22.7441 71.8086 24.0527 71.2812 25.752L67.209 45H58.5664L64.9238 15H73.5664L72.9219 18.1055C74.0938 16.7969 75.3535 15.8789 76.7012 15.3516C77.6973 14.9609 78.7715 14.7656 79.9238 14.7656C81.9551 14.7656 83.5566 15.293 84.7285 16.3477C85.9785 17.5 86.6035 19.2285 86.6035 21.5332C86.6035 22.9199 86.3496 24.7266 85.8418 26.9531C85.7051 27.5977 85.4805 28.5645 85.168 29.8535C84.6016 32.0215 84.1914 33.75 83.9375 35.0391C83.7812 35.8594 83.7031 36.5234 83.7031 37.0312C83.7031 37.832 83.8789 38.457 84.2305 38.9062C84.6016 39.3359 85.2266 39.5508 86.1055 39.5508C87.2969 39.5508 88.3027 39.0625 89.123 38.0859C89.748 37.3438 90.4219 36.0645 91.1445 34.248H93.6641C92.1797 38.6426 90.3047 41.7188 88.0391 43.4766C86.4375 44.7266 84.5918 45.3516 82.502 45.3516ZM105.412 45.9668C103.146 45.9668 101.203 45.6934 99.582 45.1465C97.9609 44.6191 96.6133 43.7793 95.5391 42.627C94.4453 41.4551 93.625 39.9316 93.0781 38.0566C92.5508 36.1621 92.2871 33.877 92.2871 31.2012C92.2871 28.1738 92.6387 25.0195 93.3418 21.7383C94.1621 17.9297 95.334 14.5215 96.8574 11.5137C98.6348 8.01758 100.793 5.29297 103.332 3.33984C106.223 1.11328 109.523 0 113.234 0C116.223 0 118.596 0.625 120.354 1.875C122.287 3.24219 123.254 5.29297 123.254 8.02734C123.254 9.74609 122.941 11.0645 122.316 11.9824C121.574 13.0371 120.48 13.5645 119.035 13.5645C118.43 13.5645 117.834 13.457 117.248 13.2422C116.682 13.0273 116.145 12.6172 115.637 12.0117C115.988 11.8359 116.33 11.5625 116.662 11.1914C116.994 10.8008 117.287 10.3516 117.541 9.84375C118.107 8.71094 118.391 7.58789 118.391 6.47461C118.391 5.40039 118.117 4.55078 117.57 3.92578C116.926 3.18359 115.979 2.8125 114.729 2.8125C113.654 2.8125 112.59 3.21289 111.535 4.01367C110.5 4.79492 109.504 5.9082 108.547 7.35352C107.629 8.74023 106.779 10.3613 105.998 12.2168C105.217 14.0723 104.553 16.0449 104.006 18.1348C103.459 20.2441 103.029 22.3926 102.717 24.5801C102.404 26.7676 102.248 28.8574 102.248 30.8496C102.248 32.334 102.355 33.6328 102.57 34.7461C102.805 35.8594 103.176 36.8066 103.684 37.5879C104.797 39.3262 106.721 40.1953 109.455 40.1953C111.799 40.1953 113.977 39.6777 115.988 38.6426C118 37.5879 119.719 36.1035 121.145 34.1895L122.521 34.8047C121.76 36.7188 120.705 38.3984 119.357 39.8438C118.029 41.2695 116.525 42.4512 114.846 43.3887C113.303 44.248 111.711 44.8926 110.07 45.3223C108.43 45.752 106.877 45.9668 105.412 45.9668ZM142.619 45.3516C140.139 45.3516 138.303 44.6484 137.111 43.2422C136.076 42.0312 135.559 40.4785 135.559 38.584C135.559 37.6855 135.666 36.6406 135.881 35.4492C136.115 34.2578 136.457 32.7246 136.906 30.8496C137.355 28.9355 137.688 27.4121 137.902 26.2793C138.137 25.127 138.254 24.1309 138.254 23.291C138.254 21.2402 137.531 20.2148 136.086 20.2148C135.07 20.2148 134.133 20.752 133.273 21.8262C132.551 22.7441 131.926 24.0527 131.398 25.752L127.326 45H118.684L127.385 4.18945L136.262 2.98828L133.039 18.1055C134.211 16.7969 135.471 15.8789 136.818 15.3516C137.814 14.9609 138.889 14.7656 140.041 14.7656C142.072 14.7656 143.674 15.293 144.846 16.3477C146.096 17.5 146.721 19.2285 146.721 21.5332C146.721 22.9199 146.467 24.7266 145.959 26.9531C145.822 27.5977 145.598 28.5645 145.285 29.8535C144.719 32.0215 144.309 33.75 144.055 35.0391C143.898 35.8594 143.82 36.5234 143.82 37.0312C143.82 37.832 143.996 38.457 144.348 38.9062C144.719 39.3359 145.344 39.5508 146.223 39.5508C147.414 39.5508 148.42 39.0625 149.24 38.0859C149.865 37.3438 150.539 36.0645 151.262 34.248H153.781C152.297 38.6426 150.422 41.7188 148.156 43.4766C146.555 44.7266 144.709 45.3516 142.619 45.3516ZM157.209 45.3516C155.295 45.3516 153.781 44.7852 152.668 43.6523C151.418 42.4023 150.793 40.5762 150.793 38.1738C150.793 37.041 150.949 35.7324 151.262 34.248L155.334 15H163.977L159.67 35.3906C159.553 35.9961 159.494 36.5625 159.494 37.0898C159.494 38.7305 160.09 39.5508 161.281 39.5508C162.375 39.5508 163.361 39.0527 164.24 38.0566C164.943 37.2168 165.559 35.9473 166.086 34.248L170.158 15H178.801L174.494 35.3906C174.318 35.9766 174.23 36.6211 174.23 37.3242C174.23 38.1445 174.426 38.7207 174.816 39.0527C175.207 39.3848 175.832 39.5508 176.691 39.5508C177.805 39.5508 178.801 39.0527 179.68 38.0566C180.461 37.1777 181.086 35.9082 181.555 34.248H184.074C183 37.2949 181.701 39.707 180.178 41.4844C178.889 42.9492 177.434 44.0039 175.812 44.6484C174.621 45.1172 173.361 45.3516 172.033 45.3516C170.314 45.3516 168.947 44.873 167.932 43.916C166.916 42.959 166.301 41.543 166.086 39.668C164.719 41.8555 163.176 43.418 161.457 44.3555C160.227 45.0195 158.811 45.3516 157.209 45.3516Z" fill="#7763FB"/>
</svg>
